<mxfile host="app.diagrams.net" modified="2023-09-29T16:46:16.880Z" agent="Mozilla/5.0 (Windows NT 10.0; Win64; x64) AppleWebKit/537.36 (KHTML, like Gecko) Chrome/114.0.0.0 Safari/537.36" etag="Yo56P4XwjoGNLKUwRIV9" version="21.8.2" type="device">
  <diagram name="Página-1" id="5lnE91gXtBwq7FEcaUg7">
    <mxGraphModel dx="725" dy="655" grid="1" gridSize="10" guides="1" tooltips="1" connect="1" arrows="1" fold="1" page="1" pageScale="1" pageWidth="827" pageHeight="1169" math="0" shadow="0">
      <root>
        <mxCell id="0" />
        <mxCell id="1" parent="0" />
        <mxCell id="nLXt0SaIvsujhRZnVf7n-1" value="SUCURSAL" style="swimlane;childLayout=stackLayout;horizontal=1;startSize=50;horizontalStack=0;rounded=1;fontSize=14;fontStyle=0;strokeWidth=2;resizeParent=0;resizeLast=1;shadow=0;dashed=0;align=center;arcSize=4;whiteSpace=wrap;html=1;" vertex="1" parent="1">
          <mxGeometry x="154" y="150" width="160" height="120" as="geometry" />
        </mxCell>
        <mxCell id="nLXt0SaIvsujhRZnVf7n-2" value="&lt;u&gt;Código S&lt;br&gt;&lt;/u&gt;dirección&lt;br&gt;teléfono" style="align=left;strokeColor=none;fillColor=none;spacingLeft=4;fontSize=12;verticalAlign=top;resizable=0;rotatable=0;part=1;html=1;" vertex="1" parent="nLXt0SaIvsujhRZnVf7n-1">
          <mxGeometry y="50" width="160" height="70" as="geometry" />
        </mxCell>
        <mxCell id="nLXt0SaIvsujhRZnVf7n-3" value="CUENTAS" style="swimlane;childLayout=stackLayout;horizontal=1;startSize=50;horizontalStack=0;rounded=1;fontSize=14;fontStyle=0;strokeWidth=2;resizeParent=0;resizeLast=1;shadow=0;dashed=0;align=center;arcSize=4;whiteSpace=wrap;html=1;" vertex="1" parent="1">
          <mxGeometry x="334" y="150" width="160" height="120" as="geometry" />
        </mxCell>
        <mxCell id="nLXt0SaIvsujhRZnVf7n-4" value="&lt;u&gt;Código C&lt;/u&gt;&lt;br&gt;saldo&lt;br&gt;fecha apertura&lt;br&gt;tipo" style="align=left;strokeColor=none;fillColor=none;spacingLeft=4;fontSize=12;verticalAlign=top;resizable=0;rotatable=0;part=1;html=1;" vertex="1" parent="nLXt0SaIvsujhRZnVf7n-3">
          <mxGeometry y="50" width="160" height="70" as="geometry" />
        </mxCell>
        <mxCell id="nLXt0SaIvsujhRZnVf7n-5" value="TITULARES" style="swimlane;childLayout=stackLayout;horizontal=1;startSize=50;horizontalStack=0;rounded=1;fontSize=14;fontStyle=0;strokeWidth=2;resizeParent=0;resizeLast=1;shadow=0;dashed=0;align=center;arcSize=4;whiteSpace=wrap;html=1;" vertex="1" parent="1">
          <mxGeometry x="514" y="150" width="160" height="160" as="geometry" />
        </mxCell>
        <mxCell id="nLXt0SaIvsujhRZnVf7n-6" value="DNI&lt;br&gt;nombre&lt;br&gt;ape1&lt;br&gt;N ape2&lt;br&gt;teléfono&lt;br&gt;dirección&lt;br&gt;correo" style="align=left;strokeColor=none;fillColor=none;spacingLeft=4;fontSize=12;verticalAlign=top;resizable=0;rotatable=0;part=1;html=1;" vertex="1" parent="nLXt0SaIvsujhRZnVf7n-5">
          <mxGeometry y="50" width="160" height="110" as="geometry" />
        </mxCell>
        <mxCell id="nLXt0SaIvsujhRZnVf7n-7" value="SUCURSAL" style="swimlane;childLayout=stackLayout;horizontal=1;startSize=50;horizontalStack=0;rounded=1;fontSize=14;fontStyle=0;strokeWidth=2;resizeParent=0;resizeLast=1;shadow=0;dashed=0;align=center;arcSize=4;whiteSpace=wrap;html=1;" vertex="1" collapsed="1" parent="1">
          <mxGeometry x="179" y="600" width="120" height="50" as="geometry">
            <mxRectangle x="160" y="330" width="160" height="120" as="alternateBounds" />
          </mxGeometry>
        </mxCell>
        <mxCell id="nLXt0SaIvsujhRZnVf7n-8" value="&lt;u&gt;Código S&lt;br&gt;&lt;/u&gt;dirección&lt;br&gt;teléfono" style="align=left;strokeColor=none;fillColor=none;spacingLeft=4;fontSize=12;verticalAlign=top;resizable=0;rotatable=0;part=1;html=1;" vertex="1" parent="nLXt0SaIvsujhRZnVf7n-7">
          <mxGeometry y="50" width="160" height="70" as="geometry" />
        </mxCell>
        <mxCell id="nLXt0SaIvsujhRZnVf7n-9" value="CUENTAS" style="swimlane;childLayout=stackLayout;horizontal=1;startSize=50;horizontalStack=0;rounded=1;fontSize=14;fontStyle=0;strokeWidth=2;resizeParent=0;resizeLast=1;shadow=0;dashed=0;align=center;arcSize=4;whiteSpace=wrap;html=1;" vertex="1" collapsed="1" parent="1">
          <mxGeometry x="359" y="340" width="110" height="50" as="geometry">
            <mxRectangle x="359" y="340" width="160" height="120" as="alternateBounds" />
          </mxGeometry>
        </mxCell>
        <mxCell id="nLXt0SaIvsujhRZnVf7n-10" value="&lt;u&gt;Código C&lt;/u&gt;&lt;br&gt;saldo&lt;br&gt;fecha apertura&lt;br&gt;tipo" style="align=left;strokeColor=none;fillColor=none;spacingLeft=4;fontSize=12;verticalAlign=top;resizable=0;rotatable=0;part=1;html=1;" vertex="1" parent="nLXt0SaIvsujhRZnVf7n-9">
          <mxGeometry y="50" width="160" height="70" as="geometry" />
        </mxCell>
        <mxCell id="nLXt0SaIvsujhRZnVf7n-11" value="TITULARES" style="swimlane;childLayout=stackLayout;horizontal=1;startSize=50;horizontalStack=0;rounded=1;fontSize=14;fontStyle=0;strokeWidth=2;resizeParent=0;resizeLast=1;shadow=0;dashed=0;align=center;arcSize=4;whiteSpace=wrap;html=1;" vertex="1" collapsed="1" parent="1">
          <mxGeometry x="529" y="600" width="120" height="50" as="geometry">
            <mxRectangle x="414" y="590" width="160" height="160" as="alternateBounds" />
          </mxGeometry>
        </mxCell>
        <mxCell id="nLXt0SaIvsujhRZnVf7n-12" value="DNI&lt;br&gt;nombre&lt;br&gt;ape1&lt;br&gt;N ape2&lt;br&gt;teléfono&lt;br&gt;dirección&lt;br&gt;correo" style="align=left;strokeColor=none;fillColor=none;spacingLeft=4;fontSize=12;verticalAlign=top;resizable=0;rotatable=0;part=1;html=1;" vertex="1" parent="nLXt0SaIvsujhRZnVf7n-11">
          <mxGeometry y="50" width="160" height="110" as="geometry" />
        </mxCell>
        <mxCell id="nLXt0SaIvsujhRZnVf7n-13" value="TIENE&lt;br&gt;1xN" style="shape=rhombus;perimeter=rhombusPerimeter;whiteSpace=wrap;html=1;align=center;" vertex="1" parent="1">
          <mxGeometry x="239" y="465" width="120" height="60" as="geometry" />
        </mxCell>
        <mxCell id="nLXt0SaIvsujhRZnVf7n-14" value="PERTENECE&lt;br&gt;NxM" style="shape=rhombus;perimeter=rhombusPerimeter;whiteSpace=wrap;html=1;align=center;" vertex="1" parent="1">
          <mxGeometry x="469" y="465" width="120" height="60" as="geometry" />
        </mxCell>
        <mxCell id="nLXt0SaIvsujhRZnVf7n-15" value="" style="endArrow=none;html=1;rounded=0;" edge="1" parent="1" source="nLXt0SaIvsujhRZnVf7n-7" target="nLXt0SaIvsujhRZnVf7n-13">
          <mxGeometry relative="1" as="geometry">
            <mxPoint x="320" y="390" as="sourcePoint" />
            <mxPoint x="480" y="390" as="targetPoint" />
          </mxGeometry>
        </mxCell>
        <mxCell id="nLXt0SaIvsujhRZnVf7n-16" value="" style="endArrow=none;html=1;rounded=0;" edge="1" parent="1" source="nLXt0SaIvsujhRZnVf7n-9" target="nLXt0SaIvsujhRZnVf7n-13">
          <mxGeometry relative="1" as="geometry">
            <mxPoint x="261" y="610" as="sourcePoint" />
            <mxPoint x="298" y="529" as="targetPoint" />
          </mxGeometry>
        </mxCell>
        <mxCell id="nLXt0SaIvsujhRZnVf7n-17" value="" style="endArrow=none;html=1;rounded=0;" edge="1" parent="1" source="nLXt0SaIvsujhRZnVf7n-9" target="nLXt0SaIvsujhRZnVf7n-14">
          <mxGeometry relative="1" as="geometry">
            <mxPoint x="402" y="400" as="sourcePoint" />
            <mxPoint x="327" y="484" as="targetPoint" />
          </mxGeometry>
        </mxCell>
        <mxCell id="nLXt0SaIvsujhRZnVf7n-18" value="" style="endArrow=none;html=1;rounded=0;" edge="1" parent="1" source="nLXt0SaIvsujhRZnVf7n-11" target="nLXt0SaIvsujhRZnVf7n-14">
          <mxGeometry relative="1" as="geometry">
            <mxPoint x="446" y="400" as="sourcePoint" />
            <mxPoint x="521" y="484" as="targetPoint" />
          </mxGeometry>
        </mxCell>
        <mxCell id="nLXt0SaIvsujhRZnVf7n-19" value="(1,1)" style="text;html=1;align=center;verticalAlign=middle;resizable=0;points=[];autosize=1;strokeColor=none;fillColor=none;" vertex="1" parent="1">
          <mxGeometry x="230" y="540" width="50" height="30" as="geometry" />
        </mxCell>
        <mxCell id="nLXt0SaIvsujhRZnVf7n-21" value="(1,n)" style="text;html=1;align=center;verticalAlign=middle;resizable=0;points=[];autosize=1;strokeColor=none;fillColor=none;" vertex="1" parent="1">
          <mxGeometry x="314" y="410" width="50" height="30" as="geometry" />
        </mxCell>
        <mxCell id="nLXt0SaIvsujhRZnVf7n-22" value="(1,n)" style="text;html=1;align=center;verticalAlign=middle;resizable=0;points=[];autosize=1;strokeColor=none;fillColor=none;" vertex="1" parent="1">
          <mxGeometry x="464" y="410" width="50" height="30" as="geometry" />
        </mxCell>
        <mxCell id="nLXt0SaIvsujhRZnVf7n-23" value="(1,n)" style="text;html=1;align=center;verticalAlign=middle;resizable=0;points=[];autosize=1;strokeColor=none;fillColor=none;" vertex="1" parent="1">
          <mxGeometry x="550" y="540" width="50" height="30" as="geometry" />
        </mxCell>
        <mxCell id="nLXt0SaIvsujhRZnVf7n-24" value="Privilegio" style="ellipse;whiteSpace=wrap;html=1;align=center;" vertex="1" parent="1">
          <mxGeometry x="649" y="475" width="100" height="40" as="geometry" />
        </mxCell>
        <mxCell id="nLXt0SaIvsujhRZnVf7n-25" value="" style="endArrow=none;html=1;rounded=0;" edge="1" parent="1" source="nLXt0SaIvsujhRZnVf7n-14" target="nLXt0SaIvsujhRZnVf7n-24">
          <mxGeometry relative="1" as="geometry">
            <mxPoint x="320" y="390" as="sourcePoint" />
            <mxPoint x="480" y="390" as="targetPoint" />
          </mxGeometry>
        </mxCell>
      </root>
    </mxGraphModel>
  </diagram>
</mxfile>
